<?xml version="1.0" encoding="utf8" standalone="no"?>
<svg viewBox="0 0 571.37909 580.4809" xmlns="http://www.w3.org/2000/svg" xmlns:xlink="http://www.w3.org/1999/xlink">
<defs>
<filter id="filter3779">
<feGaussianBlur stdDeviation="3.14859"/>
</filter>
<filter id="filter3852">
<feGaussianBlur stdDeviation="9.37475"/>
</filter>
<linearGradient id="linearGradient3695">
<stop offset="0" stop-color="#fff"/>
<stop offset="1" stop-color="#fff" stop-opacity="0"/>
</linearGradient>
<linearGradient gradientUnits="userSpaceOnUse" id="linearGradient3626" x1="432.33682" x2="341.33682" y1="320.91965" y2="341.91965">
<stop offset="0" stop-color="#eeeeec"/>
<stop offset="1" stop-color="#eeeeec" stop-opacity="0"/>
</linearGradient>
<linearGradient gradientUnits="userSpaceOnUse" id="linearGradient3629" x1="300.55362" x2="645.22467">
<stop offset="0" stop-color="#2e3436"/>
<stop offset="1" stop-color="#2e3436" stop-opacity="0"/>
</linearGradient>
<linearGradient gradientUnits="userSpaceOnUse" id="linearGradient3738" x1="-501.28416" x2="-236.0601" y1="572.8383" y2="844.77007">
<stop offset="0" stop-color="#0099CC"/>
<stop offset=".49952" stop-color="#0099CC"/>
<stop offset="1" stop-color="#00BFFF"/>
</linearGradient>
<linearGradient gradientUnits="userSpaceOnUse" id="linearGradient3791" x1="533.8656" x2="422.7713" y1="497.99045" y2="541.8407">
<stop offset="0" stop-color="#f6f6f5"/>
<stop offset="1" stop-color="#f6f6f5" stop-opacity="0"/>
</linearGradient>
<linearGradient gradientUnits="userSpaceOnUse" id="linearGradient3701" x1="333.7544" x2="354.2605" xlink:href="#linearGradient3695"/>
<linearGradient gradientUnits="userSpaceOnUse" id="linearGradient3705" x1="362.03867" x2="382.54477" xlink:href="#linearGradient3695"/>
</defs>
<g transform="translate(22.93235,-57.09435)">
<path d="m-498.04026,549.41931h238.36202a33.37069,33.37069 0 0,1 33.37069,33.37069v238.36202a33.37069,33.37069 0 0,1 -33.37069,33.37069h-238.36202a33.37069,33.37069 0 0,1 -33.37069-33.37069v-238.36202a33.37069,33.37069 0 0,1 33.37069-33.37069" fill="url(#linearGradient3738)" stroke="#2e3436" stroke-width="8.94427" transform="matrix(.89443,-.44721,.89443,.44721,0,0)"/>
<path d="m304.52691,536.38952-169.01219-1.2132-78.8873-55.61523 117.07106-72.48528 130.82843,129.31371z" fill="#2e3436" filter="url(#filter3779)" opacity=".25714"/>
<path d="m300.125,93.59375c-16.56854,0-30,8.29133-30,18.53125 0,.44371.0129.87659.0625,1.3125l-109,338.96875 .15625.25c3.79633,45.32364 64.47017,81.34375 138.75,81.34375s134.95367-36.02011 138.75-81.34375l.1875-.25-109-338.96875c.0496-.43591.0937-.86879.0937-1.3125 0-10.23992-13.43146-18.53125-30-18.53125z" fill="#0099CC" stroke="#2e3436" stroke-width="8"/>
<path d="m439.48282,387.68179c0,47.42081-62.20072,85.86297-138.9292,85.86297s-138.9292-38.44216-138.9292-85.86297 62.20072-85.86297 138.9292-85.86297 138.9292,38.44217 138.9292,85.86297z" fill="url(#linearGradient3629)" transform="matrix(.128,0,0,.128,261.23491,62.99806)"/>
<path d="m401.41403,355.49514c-25.34145,16.67832-61.34581,27.09861-101.28903,27.09861-40.63648,0-77.21254-10.78123-102.625-27.96875l-16.84375,51.9375c24.22263,25.16994 68.64964,42.03125 119.46875,42.03125 49.63975,0 93.17537-16.09367 117.73492-40.29858" fill="#eeeeec"/>
<path d="m363.93651,235.0084c-19.10714,6.1199-40.80431,13.58535-63.81151,13.58535-23.03341,0-44.74724-7.46266-63.875-13.59375l-18.9375,58.6875c23.12729,10.62656 51.78306,20.90625 82.8125,20.90625 30.72112,0 59.10585-10.16273 82.10378-20.59877" fill="#eeeeec"/>
<path d="m327.28942,129.16398-15.15228,5.05076 61.02757,378.46058c32.14286-10 62.85353-58.11967 58.81292-58.11967s-103.67805-323.37137-104.68821-325.39167z" fill="url(#linearGradient3626)"/>
<path d="m333.7544,249.57416 8.48529,46.66905 12.02081-4.24264v-45.25484l-20.5061,2.82843z" fill="url(#linearGradient3701)"/>
<path d="m362.03867,383.92445 8.48529,46.66905 12.02081-4.24264 12.72792-52.3259-33.23402,9.89949z" fill="url(#linearGradient3705)"/>
<path d="m536.33009,477.5199-224.496,106.73759c0,0-1.41421,19.09189 4.24264,18.38478s217.58178-107.68734 217.58178-107.68734c10-8 8.32843-16.72792 2.67158-17.43503z" fill="url(#linearGradient3791)" opacity=".26122"/>
</g>
</svg>
